<?xml version="1.0" standalone="no"?>
<!DOCTYPE svg PUBLIC "-//W3C//DTD SVG 20010904//EN"
 "http://www.w3.org/TR/2001/REC-SVG-20010904/DTD/svg10.dtd">
<svg version="1.0" xmlns="http://www.w3.org/2000/svg"
 width="512.000000pt" height="512.000000pt" viewBox="0 0 512.000000 512.000000"
 preserveAspectRatio="xMidYMid meet">

<g transform="translate(0.000000,512.000000) scale(0.100000,-0.100000)"
fill="#000000" stroke="none">
<path d="M3679 5022 c-69 -23 -138 -70 -176 -119 -16 -21 -84 -127 -151 -235
-82 -132 -122 -207 -122 -226 0 -53 62 -88 110 -62 10 5 75 102 144 214 127
205 159 247 206 271 76 39 176 25 239 -33 54 -50 1016 -1603 1032 -1666 16
-66 -2 -133 -53 -191 -70 -80 -9 -76 -1144 -73 l-1001 3 -49 30 c-90 55 -128
176 -85 270 10 22 140 237 290 477 149 241 275 448 280 461 13 33 -11 85 -43
93 -54 13 -70 -1 -158 -138 -198 -307 -503 -807 -521 -853 -29 -77 -21 -210
19 -289 37 -75 98 -137 172 -173 l57 -28 1034 -3 c1143 -3 1091 -5 1195 61 67
42 129 129 151 211 25 91 16 170 -27 255 -61 123 -992 1612 -1033 1654 -89 90
-246 128 -366 89z"/>
<path d="M2210 4861 c-106 -33 -171 -119 -171 -226 0 -86 50 -172 122 -210
l25 -14 -10 -87 -11 -88 -115 -22 c-135 -26 -208 -46 -308 -85 -40 -16 -77
-29 -81 -29 -5 0 -33 44 -61 98 -65 121 -84 142 -126 142 -41 0 -78 -42 -70
-80 2 -14 30 -72 62 -130 34 -62 52 -106 45 -108 -18 -6 -162 -102 -223 -148
-31 -24 -60 -44 -65 -44 -5 0 -40 22 -77 48 l-69 48 -1 86 c-1 79 -4 90 -31
129 -17 24 -53 57 -80 74 -41 26 -58 30 -114 30 -94 -1 -131 -24 -251 -157
-128 -141 -155 -194 -147 -285 6 -77 37 -130 106 -178 38 -27 51 -30 114 -30
40 0 83 4 97 8 23 7 32 1 83 -57 l58 -65 -53 -88 c-29 -48 -71 -128 -93 -176
l-40 -89 -90 7 c-49 4 -93 9 -96 11 -4 2 -10 20 -14 40 -4 26 -22 53 -59 89
-44 44 -62 55 -110 66 -102 22 -201 -20 -252 -107 -29 -50 -104 -341 -104
-404 0 -47 31 -110 68 -142 43 -36 95 -52 172 -52 72 0 126 21 169 68 14 14
29 26 35 26 6 0 45 -13 86 -29 l75 -29 -4 -148 c-2 -82 -8 -152 -13 -155 -5
-3 -50 -11 -100 -17 -127 -16 -165 -47 -138 -112 18 -44 50 -52 160 -36 52 8
98 11 101 7 3 -3 14 -46 24 -96 9 -49 25 -116 36 -150 10 -33 19 -63 19 -67 0
-3 -29 -23 -65 -43 -47 -26 -67 -43 -71 -62 -10 -37 7 -76 39 -91 25 -12 34
-11 92 17 l64 30 54 -102 c30 -56 62 -116 73 -134 l18 -31 -44 -64 c-24 -34
-45 -65 -47 -67 -1 -2 -27 9 -55 25 -48 26 -62 29 -143 29 -76 0 -97 -4 -139
-25 -64 -33 -130 -108 -152 -172 -22 -68 -15 -177 15 -236 24 -48 268 -319
333 -370 115 -90 292 -78 398 28 81 81 110 205 73 310 -11 30 -23 62 -27 70
-8 20 121 97 140 84 105 -75 234 -159 292 -190 39 -21 70 -43 68 -49 -63 -146
-76 -185 -67 -207 14 -36 36 -50 78 -46 35 3 40 8 63 53 14 28 35 73 47 102
l21 52 69 -23 c37 -13 100 -31 139 -41 l72 -17 6 -46 c8 -59 29 -82 76 -82 45
0 70 24 70 68 l0 32 154 0 c137 0 155 -2 161 -17 4 -10 18 -49 31 -87 l24 -69
-36 -40 c-20 -21 -42 -54 -50 -73 -17 -41 -18 -143 -2 -198 23 -75 109 -136
191 -136 14 0 99 16 189 35 189 42 237 65 282 139 41 66 48 155 17 220 -28 56
-88 111 -139 127 l-40 12 -7 84 c-4 47 -3 88 2 92 4 4 35 18 68 30 33 13 105
47 159 74 l99 51 16 -25 c9 -13 34 -46 57 -74 33 -41 47 -51 76 -53 29 -2 40
2 57 24 31 40 26 62 -29 139 -41 55 -48 71 -38 81 7 6 56 48 110 92 l96 80 63
-36 c58 -34 64 -41 71 -79 27 -160 182 -245 330 -181 37 16 66 40 110 92 73
87 87 113 95 176 12 100 -41 196 -133 240 -36 18 -58 21 -109 18 l-65 -4 -52
53 c-49 50 -52 55 -39 75 32 51 102 199 135 283 l34 90 44 3 c23 2 66 1 93 -3
48 -6 51 -8 68 -50 21 -49 72 -100 123 -121 44 -19 136 -18 182 2 43 18 85 55
114 102 23 37 68 291 68 385 0 130 -86 208 -230 209 -76 1 -116 -16 -175 -73
l-41 -39 -79 24 -80 23 -5 83 c-5 71 -9 85 -29 101 -13 11 -36 19 -52 19 -29
0 -68 -29 -70 -52 -11 -176 -1 -231 51 -268 15 -11 93 -39 173 -62 170 -49
185 -47 217 26 10 25 28 49 39 55 30 16 97 13 115 -5 21 -20 20 -51 -8 -218
-25 -154 -38 -176 -100 -176 -52 1 -86 41 -86 103 0 23 -8 41 -26 58 -25 23
-29 24 -199 24 l-174 0 -34 -33 c-19 -18 -40 -52 -47 -75 -20 -69 -90 -225
-141 -316 -50 -88 -58 -126 -39 -177 13 -32 151 -177 198 -206 31 -19 34 -19
81 -2 29 10 59 14 74 10 34 -8 60 -58 52 -96 -8 -38 -114 -150 -142 -150 -60
0 -98 46 -87 105 3 18 3 43 -1 54 -7 24 -223 155 -269 163 -50 10 -93 -11
-164 -76 -155 -142 -323 -248 -518 -327 -111 -44 -149 -73 -163 -123 -5 -20
-3 -89 5 -181 16 -178 26 -195 106 -195 39 0 54 -5 73 -25 32 -31 32 -75 2
-110 -19 -23 -45 -31 -181 -61 -146 -32 -161 -33 -182 -19 -19 12 -24 24 -24
59 0 63 7 74 60 101 76 39 77 52 11 238 -49 140 -72 177 -119 196 -15 5 -110
12 -212 14 -206 6 -310 23 -486 82 -171 57 -289 122 -532 293 -72 51 -105 44
-274 -57 -148 -88 -162 -104 -138 -160 6 -16 25 -41 41 -57 34 -33 53 -92 43
-137 -22 -105 -149 -157 -234 -97 -40 28 -284 297 -297 328 -52 118 72 248
193 201 16 -5 49 -30 76 -55 35 -33 55 -44 78 -44 39 0 53 15 160 173 100 148
103 166 33 277 -183 294 -264 610 -248 967 10 216 14 211 -239 303 -110 41
-120 43 -145 29 -14 -8 -34 -30 -43 -49 -24 -48 -44 -60 -98 -60 -33 0 -52 6
-64 19 -16 18 -15 27 19 172 20 85 44 165 54 178 36 51 119 41 139 -17 6 -17
8 -33 5 -36 -12 -12 9 -77 30 -90 27 -18 297 -50 343 -42 56 11 82 43 148 180
35 72 85 163 110 201 52 79 63 119 47 167 -6 18 -57 85 -114 148 -118 132
-139 142 -206 96 -20 -14 -44 -26 -54 -26 -52 0 -96 54 -83 103 5 22 172 221
200 239 6 4 28 8 48 8 28 0 42 -6 57 -26 27 -34 26 -63 0 -113 -34 -66 -22
-82 134 -188 121 -82 142 -93 181 -93 34 0 54 8 89 33 25 17 80 58 123 89 106
77 288 170 415 212 90 30 204 57 342 81 49 8 104 57 116 103 5 21 17 94 25
164 13 96 14 132 5 151 -12 26 -47 47 -80 47 -11 0 -31 11 -44 25 -34 33 -34
83 1 116 24 22 34 24 151 27 145 4 186 -1 214 -29 30 -30 26 -92 -7 -118 -15
-12 -37 -21 -49 -21 -12 0 -34 -9 -49 -21 -32 -25 -33 -68 -7 -244 26 -176 40
-191 200 -220 71 -13 98 -15 117 -6 48 22 54 98 9 127 -13 8 -53 21 -91 27
-77 15 -78 15 -90 136 l-6 66 35 17 c70 33 123 136 113 220 -10 92 -81 181
-165 206 -43 13 -340 15 -381 3z"/>
<path d="M3764 4729 c-11 -4 -26 -14 -34 -24 -46 -56 -970 -1562 -970 -1582 0
-13 11 -35 25 -48 l24 -25 671 0 671 0 26 26 c20 20 24 31 19 57 -13 70 17 67
-633 67 -483 0 -584 2 -580 13 9 25 798 1292 805 1294 6 1 798 -1269 810
-1299 2 -4 -39 -8 -90 -8 -81 0 -97 -3 -116 -20 -30 -28 -30 -82 0 -110 20
-19 34 -20 197 -20 189 1 202 4 220 53 8 20 5 35 -12 69 -26 51 -934 1516
-954 1539 -17 20 -53 28 -79 18z"/>
<path d="M3739 4211 l-29 -29 0 -220 c0 -207 1 -221 21 -246 26 -33 79 -36
109 -6 19 19 20 33 20 254 l0 235 -26 20 c-36 28 -60 26 -95 -8z"/>
<path d="M1755 3569 c-341 -57 -599 -386 -572 -729 15 -181 72 -306 202 -436
49 -50 115 -105 145 -122 77 -43 195 -80 276 -88 61 -5 72 -4 97 16 59 47 24
122 -63 134 -96 14 -147 30 -214 64 -179 93 -285 267 -286 467 0 161 49 284
155 390 187 187 474 212 696 60 36 -25 76 -45 88 -45 56 0 91 51 70 102 -14
35 -135 118 -216 148 -123 46 -255 60 -378 39z"/>
<path d="M3754 3548 c-30 -14 -44 -50 -44 -112 0 -69 26 -106 76 -106 57 0 74
27 74 114 0 69 -2 76 -26 95 -29 23 -48 25 -80 9z"/>
<path d="M2413 2723 c-7 -2 -30 -37 -50 -76 -44 -83 -123 -172 -194 -217 -73
-48 -87 -85 -48 -134 31 -39 73 -35 145 15 105 73 179 158 238 276 31 63 32
82 5 117 -20 25 -61 34 -96 19z"/>
<path d="M3060 2319 c-90 -40 -147 -119 -157 -215 -20 -187 167 -339 345 -280
187 63 244 304 104 444 -19 19 -53 43 -76 53 -57 26 -157 25 -216 -2z m154
-143 c32 -13 66 -65 66 -101 0 -25 -27 -72 -52 -89 -12 -9 -42 -16 -66 -16
-35 0 -49 6 -73 29 -65 66 -18 187 74 190 10 1 32 -5 51 -13z"/>
<path d="M1985 2016 c-225 -74 -356 -277 -324 -504 34 -244 279 -426 518 -383
99 18 182 61 250 128 223 223 159 589 -127 731 -70 34 -82 37 -176 39 -64 2
-116 -2 -141 -11z m252 -168 c108 -51 167 -146 168 -268 0 -122 -56 -213 -168
-272 -34 -19 -58 -23 -127 -23 -73 0 -92 4 -136 27 -199 105 -219 384 -35 510
88 62 202 71 298 26z"/>
</g>
</svg>
